<?xml version="1.0" encoding="iso-8859-1"?>
<!-- Generator: Adobe Illustrator 16.0.4, SVG Export Plug-In . SVG Version: 6.00 Build 0)  -->
<!DOCTYPE svg PUBLIC "-//W3C//DTD SVG 1.1//EN" "http://www.w3.org/Graphics/SVG/1.1/DTD/svg11.dtd">
<svg version="1.1" id="Layer_1" xmlns="http://www.w3.org/2000/svg" xmlns:xlink="http://www.w3.org/1999/xlink" x="0px" y="0px"
	 width="451.5px" height="500px" viewBox="0 0 451.5 500" style="enable-background:new 0 0 451.5 500;" xml:space="preserve">
<g>
	<g>
		<path style="fill:#9E2A2F;" d="M46.224,163.108c-1.038,2.761-2.453,5.196-4.252,7.301c-1.799,2.107-3.953,3.882-6.46,5.323
			c-2.509,1.441-5.232,2.371-8.175,2.784c-2.943,0.414-5.699,0.255-8.258-0.475c-2.563-0.729-4.771-1.89-6.623-3.485
			c-1.854-1.592-3.326-3.621-4.416-6.083c-1.091-2.463-1.634-5.275-1.634-8.438v-89.12l16.841-2.367v89.93
			c0,1.42,0.382,2.457,1.146,3.113c0.761,0.661,1.742,0.904,2.943,0.735c1.197-0.167,2.207-0.69,3.024-1.574
			c0.817-0.878,1.227-2.027,1.227-3.447V67.378l16.188-2.275v89.12C47.777,157.386,47.258,160.347,46.224,163.108z"/>
		<path style="fill:#9E2A2F;" d="M87.839,168.379l-12.265-47.498l-3.761-14.351v64.101l-14.39,2.022V63.748l16.026-2.252
			l10.792,47.376l3.271,14.747v-64.1l14.062-1.976v108.905L87.839,168.379z"/>
		<path style="fill:#9E2A2F;" d="M111.712,165.024V56.118l16.842-2.367v108.905L111.712,165.024z"/>
		<path style="fill:#9E2A2F;" d="M165.51,157.463l-16.352,2.298L134.605,52.9l16.843-2.366l6.378,70.236l6.704-72.074l15.698-2.207
			L165.51,157.463z"/>
		<path style="fill:#9E2A2F;" d="M186.114,154.567V45.662l35.32-4.964v15.7l-18.478,2.597v29.76l12.265-1.724v14.88l-12.265,1.724
			v32.378l18.478-2.598v16.188L186.114,154.567z"/>
		<path style="fill:#9E2A2F;" d="M258.062,144.456c-0.653,0.092-1.227-0.399-1.718-1.475c-0.49-1.076-0.927-2.458-1.308-4.151
			c-0.384-1.688-0.654-3.505-0.818-5.443c-0.163-1.94-0.246-3.672-0.246-5.2v-23.71c0-1.309-0.3-2.411-0.898-3.308
			c-0.601-0.896-1.499-1.261-2.697-1.093l-4.089,0.575v45.459l-16.842,2.367V39.572l22.729-3.195
			c2.07-0.291,4.169-0.259,6.295,0.097c2.124,0.355,4.033,1.178,5.722,2.467c1.689,1.29,3.052,3.061,4.091,5.312
			c1.033,2.254,1.553,5.178,1.553,8.774v24.855c0,2.509-0.654,4.891-1.963,7.145c-1.309,2.256-3.053,4.3-5.233,6.131
			c2.181,1.222,4.008,2.735,5.478,4.544c1.473,1.812,2.209,4.079,2.209,6.803v22.075c0,3.49,0.218,6.621,0.654,9.391
			c0.435,2.776,0.924,5.43,1.47,7.97v0.491L258.062,144.456z M253.484,56.144c0-3.05-0.981-4.439-2.944-4.164l-4.252,0.597v33.685
			l4.252-0.597c0.981-0.138,1.717-0.569,2.207-1.291c0.49-0.724,0.737-1.957,0.737-3.702V56.144z"/>
		<path style="fill:#9E2A2F;" d="M317.256,124.692c-1.201,3.222-2.782,5.924-4.745,8.105c-1.962,2.185-4.196,3.917-6.703,5.193
			c-2.509,1.277-5.069,2.103-7.684,2.471c-6.507,0.914-11.619-0.33-15.344-3.731c-3.727-3.401-5.589-8.752-5.589-16.057v-11.446
			l14.718-2.068v12.753c0,1.962,0.462,3.479,1.389,4.548c0.926,1.07,2.317,1.473,4.172,1.212c3.596-0.505,5.395-2.938,5.395-7.3
			c0-4.906-0.928-9.379-2.778-13.427c-1.856-4.045-4.363-8.57-7.522-13.578c-1.636-2.275-3.328-4.847-5.071-7.708
			c-1.743-2.863-3.352-5.825-4.822-8.889c-1.474-3.064-2.699-6.214-3.68-9.456c-0.981-3.241-1.473-6.442-1.473-9.605
			c0-3.376,0.432-6.627,1.297-9.748c0.862-3.12,2.184-5.893,3.966-8.325c1.779-2.43,4.021-4.489,6.72-6.178
			c2.698-1.688,5.899-2.792,9.604-3.312c5.776-0.811,10.409,0.529,13.899,4.017c3.485,3.49,5.23,8.83,5.23,16.024v11.938
			l-14.553,2.045V48.598c0-1.851-0.437-3.18-1.308-3.984c-0.876-0.804-1.961-1.114-3.27-0.931c-1.42,0.199-2.616,0.833-3.598,1.896
			c-0.981,1.064-1.474,2.525-1.474,4.376c0,3.163,0.218,5.856,0.654,8.084c0.435,2.229,1.118,4.314,2.045,6.254
			c0.926,1.942,2.043,3.938,3.354,5.988c1.309,2.052,2.832,4.48,4.577,7.287c3.596,5.709,6.894,11.516,9.893,17.415
			c2.996,5.902,4.497,12.07,4.497,18.5C319.053,117.734,318.452,121.472,317.256,124.692z"/>
		<path style="fill:#9E2A2F;" d="M327.391,134.713V25.808l16.843-2.368v108.905L327.391,134.713z"/>
		<path style="fill:#9E2A2F;" d="M379.88,34.947v92.388l-16.842,2.368V37.314l-12.264,1.724V22.521l41.371-5.814v16.517
			L379.88,34.947z"/>
		<path style="fill:#9E2A2F;" d="M425.339,77.451v43.497l-16.842,2.367V79.817l-14.392-63.386l16.679-2.344l7.359,41.808
			l6.542-43.761l16.352-2.298L425.339,77.451z"/>
		<path style="fill:#9E2A2F;" d="M43.38,311.524c-1.042,2.701-2.476,5.113-4.297,7.245c-1.824,2.132-3.985,3.871-6.484,5.211
			c-2.5,1.343-5.156,2.208-7.97,2.604c-2.812,0.396-5.444,0.27-7.891-0.373c-2.448-0.646-4.609-1.778-6.484-3.391
			s-3.335-3.616-4.375-6.025c-1.042-2.405-1.562-5.172-1.562-8.296v-65.315c0-3.126,0.521-6.036,1.562-8.737
			c1.04-2.697,2.5-5.091,4.375-7.178c1.875-2.085,4.036-3.823,6.484-5.206c2.447-1.385,5.079-2.278,7.891-2.674
			c2.814-0.396,5.47-0.247,7.97,0.444c2.499,0.688,4.661,1.818,6.484,3.384c1.821,1.568,3.255,3.553,4.297,5.958
			c1.04,2.409,1.562,5.171,1.562,8.298v65.315C44.943,305.914,44.42,308.827,43.38,311.524z M28.535,238.548
			c0-2.823-1.304-4.054-3.907-3.688c-2.605,0.366-3.906,1.962-3.906,4.785v67.781c0,2.825,1.301,4.057,3.906,3.69
			c2.603-0.365,3.907-1.962,3.907-4.786V238.548z"/>
		<path style="fill:#9E2A2F;" d="M70.099,229.251v29.064l12.188-1.712v14.841l-12.188,1.716v45.471l-16.095,2.263V216.824
			l32.659-4.589v14.688L70.099,229.251z"/>
		<path style="fill:#9E2A2F;" d="M137.292,309.188v-42.97l-9.064,1.273v42.97l-16.094,2.263V208.655l16.094-2.262v45.161
			l9.064-1.275v-45.16l16.095-2.262v104.067L137.292,309.188z"/>
		<path style="fill:#9E2A2F;" d="M201.2,289.345c-1.042,2.701-2.476,5.114-4.297,7.246c-1.824,2.132-3.985,3.871-6.484,5.21
			c-2.5,1.339-5.156,2.209-7.97,2.604c-2.813,0.393-5.444,0.27-7.891-0.377c-2.448-0.643-4.61-1.773-6.485-3.386
			c-1.875-1.612-3.335-3.617-4.375-6.026c-1.042-2.404-1.562-5.171-1.562-8.296v-65.315c0-3.126,0.521-6.035,1.562-8.737
			c1.04-2.697,2.5-5.09,4.375-7.177c1.875-2.086,4.037-3.823,6.485-5.208c2.447-1.385,5.078-2.278,7.891-2.673
			c2.814-0.395,5.47-0.245,7.97,0.445c2.499,0.688,4.661,1.818,6.484,3.384c1.821,1.568,3.255,3.555,4.297,5.958
			c1.04,2.409,1.562,5.172,1.562,8.298v65.315C202.762,283.734,202.239,286.647,201.2,289.345z M186.355,216.368
			c0-2.823-1.305-4.054-3.908-3.688c-2.605,0.366-3.907,1.962-3.907,4.785v67.782c0,2.824,1.302,4.056,3.907,3.69
			c2.603-0.366,3.908-1.963,3.908-4.787V216.368z"/>
		<path style="fill:#9E2A2F;" d="M249.562,282.784c-0.992,2.64-2.345,4.968-4.062,6.977c-1.721,2.016-3.779,3.709-6.173,5.087
			c-2.396,1.377-5,2.267-7.814,2.662c-2.813,0.393-5.443,0.243-7.891-0.453c-2.448-0.697-4.559-1.809-6.328-3.329
			c-1.773-1.523-3.179-3.459-4.219-5.814c-1.043-2.354-1.562-5.04-1.562-8.061v-85.163l16.094-2.263v85.937
			c0,1.354,0.364,2.347,1.093,2.975c0.729,0.631,1.666,0.865,2.813,0.704c1.146-0.162,2.112-0.662,2.894-1.505
			c0.781-0.839,1.17-1.939,1.17-3.294v-85.936l15.47-2.174v85.163C251.046,277.316,250.552,280.145,249.562,282.784z"/>
		<path style="fill:#9E2A2F;" d="M296.518,275.873c-1.149,3.079-2.657,5.66-4.531,7.746c-1.876,2.09-4.012,3.744-6.407,4.964
			c-2.397,1.22-4.845,2.009-7.346,2.358c-6.214,0.874-11.101-0.312-14.66-3.562c-3.56-3.252-5.341-8.365-5.341-15.346v-10.936
			l14.064-1.979v12.19c0,1.874,0.442,3.325,1.327,4.345s2.213,1.404,3.986,1.158c3.437-0.485,5.156-2.81,5.156-6.977
			c0-4.687-0.887-8.962-2.657-12.829c-1.771-3.867-4.169-8.189-7.188-12.976c-1.564-2.176-3.181-4.633-4.843-7.367
			c-1.67-2.734-3.205-5.566-4.609-8.492c-1.409-2.93-2.58-5.941-3.518-9.041c-0.938-3.094-1.408-6.154-1.408-9.176
			c0-3.229,0.416-6.333,1.239-9.315c0.825-2.981,2.087-5.63,3.79-7.956c1.701-2.322,3.844-4.29,6.42-5.903
			c2.58-1.612,5.64-2.668,9.18-3.166c5.52-0.775,9.946,0.505,13.283,3.838c3.332,3.335,4.998,8.438,4.998,15.314v11.407
			l-13.906,1.955v-12.97c0-1.771-0.418-3.041-1.251-3.811c-0.835-0.765-1.874-1.063-3.124-0.888
			c-1.356,0.19-2.501,0.796-3.438,1.812c-0.937,1.018-1.406,2.412-1.406,4.184c0,3.022,0.208,5.594,0.625,7.724
			c0.414,2.131,1.068,4.123,1.953,5.976c0.885,1.856,1.955,3.763,3.203,5.722c1.249,1.962,2.707,4.283,4.375,6.963
			c3.438,5.457,6.588,11.005,9.455,16.644c2.862,5.641,4.296,11.531,4.296,17.677C298.235,269.225,297.662,272.795,296.518,275.873z
			"/>
		<path style="fill:#9E2A2F;" d="M329.8,193.848v88.286l-16.092,2.263v-88.287l-11.721,1.646v-15.782l39.533-5.556V192.2
			L329.8,193.848z"/>
		<path style="fill:#9E2A2F;" d="M385.275,263.476c-1.043,2.701-2.479,5.113-4.299,7.245c-1.824,2.132-3.986,3.871-6.483,5.21
			c-2.501,1.344-5.156,2.209-7.971,2.605c-2.813,0.396-5.443,0.27-7.891-0.373c-2.449-0.646-4.609-1.778-6.485-3.391
			s-3.334-3.616-4.375-6.025c-1.043-2.405-1.562-5.172-1.562-8.296v-65.315c0-3.126,0.52-6.036,1.562-8.737
			c1.041-2.697,2.499-5.091,4.375-7.178c1.876-2.085,4.036-3.823,6.485-5.207c2.447-1.385,5.077-2.278,7.891-2.673
			c2.814-0.396,5.47-0.246,7.971,0.444c2.497,0.688,4.659,1.819,6.483,3.384c1.82,1.568,3.256,3.554,4.299,5.958
			c1.038,2.41,1.562,5.171,1.562,8.298v65.315C386.837,257.865,386.313,260.778,385.275,263.476z M370.43,190.498
			c0-2.823-1.305-4.053-3.907-3.688c-2.605,0.367-3.908,1.963-3.908,4.786v67.78c0,2.825,1.303,4.057,3.908,3.69
			c2.603-0.365,3.907-1.962,3.907-4.786V190.498z"/>
		<path style="fill:#9E2A2F;" d="M424.807,268.781l-11.719-45.387l-3.594-13.716v61.254l-13.753,1.936v-104.07l15.314-2.152
			l10.312,45.273l3.125,14.091v-61.252l13.44-1.888v104.069L424.807,268.781z"/>
		<path style="fill:#9E2A2F;" d="M4.044,495.377V368.104l19.684-2.767v108.927l20.448-2.874v18.347L4.044,495.377z"/>
		<path style="fill:#9E2A2F;" d="M51.818,488.663V361.39l19.684-2.767v127.273L51.818,488.663z"/>
		<path style="fill:#9E2A2F;" d="M128.736,466.384c-1.212,2.978-2.771,5.456-4.681,7.441c-1.913,1.989-4.047,3.506-6.403,4.533
			c-2.359,1.031-4.748,1.72-7.167,2.059L83.35,484.23V356.957l27.135-3.813c2.419-0.339,4.808-0.323,7.167,0.042
			c2.356,0.373,4.49,1.281,6.403,2.732c1.911,1.45,3.469,3.493,4.681,6.125c1.21,2.637,1.815,6.054,1.815,10.255v25.035
			c0,3.439-0.734,6.599-2.197,9.48c-1.466,2.883-3.855,5.322-7.167,7.315c6.24,2.439,9.364,7.157,9.364,14.164v27.328
			C130.551,459.822,129.946,463.417,128.736,466.384z M111.633,376.296c0-3.566-1.213-5.183-3.631-4.841l-4.968,0.697v37.074
			l4.968-0.696c2.418-0.343,3.631-2.355,3.631-6.053V376.296z M111.633,429.805c0-3.693-1.213-5.371-3.631-5.032l-4.968,0.7v38.217
			l4.968-0.696c2.418-0.342,3.631-2.293,3.631-5.86V429.805z"/>
		<path style="fill:#9E2A2F;" d="M174.696,471.394c-0.765,0.107-1.434-0.47-2.007-1.724c-0.573-1.259-1.084-2.875-1.529-4.853
			c-0.448-1.974-0.764-4.095-0.956-6.36c-0.191-2.267-0.287-4.291-0.287-6.076v-27.709c0-1.531-0.352-2.816-1.05-3.867
			c-0.703-1.047-1.753-1.474-3.154-1.277l-4.777,0.674v53.124l-19.684,2.767V348.818l26.563-3.732
			c2.418-0.339,4.874-0.305,7.358,0.111c2.484,0.416,4.711,1.378,6.688,2.882c1.974,1.509,3.566,3.579,4.778,6.211
			c1.209,2.632,1.815,6.049,1.815,10.255v29.048c0,2.932-0.764,5.714-2.293,8.35c-1.529,2.632-3.568,5.021-6.115,7.161
			c2.547,1.428,4.682,3.197,6.403,5.313c1.719,2.117,2.579,4.768,2.579,7.95v25.8c0,4.079,0.254,7.734,0.764,10.975
			c0.508,3.244,1.081,6.349,1.721,9.315v0.574L174.696,471.394z M169.345,368.185c0-3.566-1.146-5.19-3.44-4.867l-4.968,0.696
			v39.368l4.968-0.696c1.147-0.162,2.007-0.666,2.581-1.509c0.573-0.847,0.859-2.286,0.859-4.325V368.185z"/>
		<path style="fill:#9E2A2F;" d="M227.057,464.036l-1.147-21.625l-11.657,1.639l-1.911,22.053l-17.773,2.497l15.097-129.394
			l22.359-3.144l15.099,125.153L227.057,464.036z M220.94,372.21l-4.777,53.412l8.217-1.154L220.94,372.21z"/>
		<path style="fill:#9E2A2F;" d="M287.822,455.494c-0.762,0.107-1.431-0.47-2.004-1.725c-0.574-1.258-1.086-2.874-1.53-4.848
			c-0.448-1.975-0.764-4.099-0.956-6.365c-0.19-2.266-0.284-4.29-0.284-6.075v-27.709c0-1.527-0.354-2.816-1.051-3.867
			c-0.704-1.047-1.755-1.474-3.155-1.273l-4.775,0.669v53.129l-19.686,2.767V332.923l26.562-3.736
			c2.421-0.339,4.876-0.305,7.359,0.115c2.483,0.411,4.712,1.378,6.689,2.878c1.974,1.509,3.563,3.579,4.775,6.211
			s1.816,6.053,1.816,10.255v29.048c0,2.932-0.764,5.714-2.294,8.35c-1.527,2.636-3.566,5.025-6.114,7.165
			c2.548,1.427,4.684,3.197,6.403,5.31c1.718,2.12,2.578,4.768,2.578,7.95v25.8c0,4.079,0.254,7.734,0.766,10.979
			c0.508,3.24,1.081,6.345,1.72,9.312v0.573L287.822,455.494z M282.475,352.289c0-3.567-1.147-5.194-3.44-4.871l-4.968,0.7v39.368
			l4.968-0.701c1.146-0.161,2.005-0.665,2.58-1.508c0.571-0.843,0.86-2.286,0.86-4.325V352.289z"/>
		<path style="fill:#9E2A2F;" d="M312.857,451.977V324.703l19.684-2.767V449.21L312.857,451.977z"/>
		<path style="fill:#9E2A2F;" d="M344.389,447.544V320.271l41.278-5.799v18.343l-21.594,3.036v34.781l14.333-2.017v17.393
			l-14.333,2.013v37.841l21.594-3.036v18.92L344.389,447.544z"/>
		<path style="fill:#9E2A2F;" d="M438.984,420.874c-1.401,3.764-3.25,6.923-5.543,9.474c-2.292,2.551-4.904,4.575-7.833,6.068
			c-2.932,1.493-5.926,2.459-8.982,2.886c-7.602,1.069-13.577-0.385-17.932-4.359c-4.354-3.972-6.531-10.228-6.531-18.763v-13.379
			l17.2-2.417v14.907c0,2.293,0.54,4.063,1.623,5.313c1.082,1.251,2.705,1.721,4.876,1.416c4.201-0.592,6.307-3.432,6.307-8.53
			c0-5.733-1.085-10.959-3.25-15.692c-2.168-4.725-5.097-10.016-8.79-15.868c-1.913-2.659-3.889-5.664-5.926-9.008
			c-2.04-3.344-3.918-6.808-5.638-10.39c-1.72-3.579-3.151-7.261-4.298-11.052c-1.146-3.786-1.72-7.526-1.72-11.224
			c0-3.948,0.504-7.746,1.512-11.39c1.01-3.648,2.555-6.888,4.635-9.731c2.08-2.84,4.7-5.245,7.852-7.219
			c3.155-1.971,6.896-3.264,11.227-3.871c6.751-0.95,12.165,0.615,16.244,4.694c4.076,4.079,6.114,10.316,6.114,18.728v13.949
			l-17.008,2.394v-15.861c0-2.167-0.512-3.721-1.527-4.66c-1.023-0.938-2.294-1.305-3.823-1.089
			c-1.656,0.234-3.058,0.974-4.204,2.217c-1.146,1.242-1.72,2.947-1.72,5.113c0,3.698,0.254,6.846,0.764,9.447
			c0.506,2.604,1.305,5.044,2.388,7.311c1.081,2.271,2.39,4.603,3.919,6.999c1.527,2.397,3.312,5.237,5.351,8.516
			c4.206,6.669,8.054,13.456,11.56,20.352c3.507,6.896,5.26,14.103,5.26,21.618C441.089,412.743,440.385,417.111,438.984,420.874z"
			/>
	</g>
	<g>
		<path style="fill:#F1E6B2;" d="M52.134,157.198c-1.038,2.761-2.453,5.195-4.252,7.3c-1.799,2.108-3.953,3.882-6.459,5.324
			c-2.509,1.441-5.232,2.37-8.175,2.784c-2.944,0.414-5.699,0.255-8.259-0.474c-2.562-0.729-4.771-1.89-6.622-3.485
			c-1.855-1.592-3.327-3.621-4.416-6.083c-1.091-2.462-1.634-5.274-1.634-8.438v-89.12l16.841-2.366v89.929
			c0,1.42,0.382,2.457,1.146,3.113c0.761,0.661,1.742,0.904,2.944,0.735c1.197-0.167,2.207-0.691,3.024-1.574
			c0.816-0.878,1.227-2.027,1.227-3.447v-89.93l16.188-2.275v89.12C53.687,151.475,53.168,154.437,52.134,157.198z"/>
		<path style="fill:#F1E6B2;" d="M93.75,162.469l-12.264-47.498l-3.761-14.351v64.101l-14.39,2.022V57.837l16.026-2.252
			l10.792,47.376l3.271,14.747V53.608l14.062-1.976v108.905L93.75,162.469z"/>
		<path style="fill:#F1E6B2;" d="M117.623,159.113V50.208l16.842-2.368v108.906L117.623,159.113z"/>
		<path style="fill:#F1E6B2;" d="M171.42,151.552l-16.352,2.298L140.516,46.99l16.842-2.367l6.378,70.236l6.704-72.074l15.697-2.207
			L171.42,151.552z"/>
		<path style="fill:#F1E6B2;" d="M192.024,148.657V39.751l35.32-4.963v15.699l-18.478,2.597v29.76l12.265-1.724V96l-12.265,1.724
			v32.378l18.478-2.597v16.188L192.024,148.657z"/>
		<path style="fill:#F1E6B2;" d="M263.974,138.545c-0.654,0.092-1.228-0.399-1.719-1.475c-0.49-1.076-0.927-2.459-1.308-4.151
			c-0.383-1.688-0.654-3.506-0.818-5.443c-0.163-1.94-0.246-3.672-0.246-5.2V98.566c0-1.308-0.3-2.411-0.898-3.307
			c-0.6-0.896-1.499-1.261-2.697-1.093l-4.088,0.574V140.2l-16.843,2.367V33.662l22.729-3.195c2.07-0.291,4.169-0.259,6.295,0.097
			c2.124,0.355,4.033,1.177,5.723,2.466c1.688,1.29,3.051,3.061,4.09,5.312c1.033,2.254,1.553,5.179,1.553,8.774v24.855
			c0,2.509-0.654,4.891-1.963,7.145c-1.308,2.256-3.053,4.3-5.232,6.132c2.18,1.222,4.007,2.735,5.478,4.544
			c1.472,1.811,2.208,4.079,2.208,6.803v22.076c0,3.49,0.218,6.62,0.654,9.391c0.435,2.776,0.924,5.431,1.47,7.97v0.491
			L263.974,138.545z M259.395,50.233c0-3.049-0.981-4.438-2.943-4.164l-4.252,0.598v33.685l4.252-0.598
			c0.98-0.137,1.716-0.568,2.206-1.291c0.491-0.723,0.737-1.957,0.737-3.702V50.233z"/>
		<path style="fill:#F1E6B2;" d="M323.166,118.782c-1.201,3.221-2.782,5.924-4.745,8.105c-1.962,2.185-4.195,3.917-6.702,5.193
			c-2.51,1.277-5.07,2.103-7.685,2.471c-6.507,0.914-11.619-0.33-15.344-3.731c-3.727-3.402-5.589-8.752-5.589-16.058v-11.445
			l14.718-2.068v12.754c0,1.962,0.462,3.479,1.39,4.548c0.925,1.069,2.316,1.473,4.171,1.212c3.596-0.505,5.395-2.938,5.395-7.299
			c0-4.906-0.927-9.379-2.778-13.427c-1.856-4.045-4.363-8.57-7.522-13.579c-1.636-2.275-3.328-4.846-5.071-7.708
			c-1.743-2.863-3.352-5.825-4.821-8.889c-1.474-3.064-2.699-6.214-3.681-9.457c-0.981-3.241-1.472-6.442-1.472-9.605
			c0-3.376,0.431-6.627,1.297-9.748c0.861-3.12,2.184-5.893,3.965-8.325c1.779-2.43,4.021-4.49,6.721-6.178
			c2.697-1.688,5.898-2.792,9.604-3.312c5.775-0.811,10.408,0.529,13.898,4.018c3.486,3.49,5.231,8.83,5.231,16.023v11.938
			l-14.554,2.045V42.687c0-1.851-0.437-3.18-1.308-3.984c-0.876-0.803-1.961-1.114-3.269-0.93c-1.42,0.199-2.617,0.832-3.599,1.895
			c-0.98,1.065-1.474,2.525-1.474,4.376c0,3.163,0.218,5.856,0.654,8.084c0.435,2.229,1.118,4.314,2.045,6.255
			c0.926,1.942,2.044,3.938,3.354,5.987c1.309,2.052,2.832,4.481,4.577,7.287c3.596,5.709,6.894,11.516,9.894,17.415
			c2.995,5.903,4.496,12.07,4.496,18.5C324.963,111.824,324.362,115.562,323.166,118.782z"/>
		<path style="fill:#F1E6B2;" d="M333.301,128.802V19.897l16.843-2.368v108.906L333.301,128.802z"/>
		<path style="fill:#F1E6B2;" d="M385.791,29.037v92.388l-16.843,2.368V31.404l-12.264,1.724V16.611l41.371-5.814v16.517
			L385.791,29.037z"/>
		<path style="fill:#F1E6B2;" d="M431.25,71.541v43.497l-16.843,2.366V73.907l-14.391-63.387l16.679-2.343l7.358,41.808
			l6.542-43.761l16.352-2.298L431.25,71.541z"/>
		<path style="fill:#F1E6B2;" d="M49.291,305.614c-1.042,2.701-2.477,5.113-4.297,7.245c-1.824,2.132-3.985,3.871-6.485,5.21
			c-2.5,1.343-5.156,2.209-7.97,2.605c-2.813,0.396-5.444,0.27-7.891-0.373c-2.448-0.646-4.61-1.778-6.485-3.391
			s-3.335-3.617-4.375-6.025c-1.042-2.405-1.562-5.172-1.562-8.296v-65.316c0-3.126,0.52-6.035,1.562-8.737
			c1.04-2.697,2.5-5.09,4.375-7.178c1.875-2.086,4.037-3.823,6.485-5.207c2.447-1.385,5.078-2.278,7.891-2.674
			c2.813-0.396,5.47-0.246,7.97,0.444c2.5,0.689,4.661,1.818,6.485,3.384c1.821,1.568,3.255,3.554,4.297,5.958
			c1.04,2.409,1.562,5.172,1.562,8.298v65.315C50.853,300.004,50.331,302.916,49.291,305.614z M34.445,232.637
			c0-2.822-1.303-4.054-3.906-3.688c-2.605,0.365-3.907,1.962-3.907,4.785v67.782c0,2.824,1.302,4.056,3.907,3.69
			c2.603-0.365,3.906-1.963,3.906-4.787V232.637z"/>
		<path style="fill:#F1E6B2;" d="M76.01,223.341v29.064l12.188-1.712v14.841L76.01,267.25v45.471l-16.095,2.263V210.914l32.659-4.59
			v14.688L76.01,223.341z"/>
		<path style="fill:#F1E6B2;" d="M143.202,303.278v-42.97l-9.064,1.273v42.97l-16.094,2.263v-104.07l16.094-2.261v45.16l9.064-1.273
			v-45.16l16.095-2.262v104.068L143.202,303.278z"/>
		<path style="fill:#F1E6B2;" d="M207.11,283.435c-1.042,2.701-2.476,5.114-4.297,7.245c-1.824,2.132-3.986,3.871-6.485,5.211
			c-2.5,1.339-5.156,2.208-7.97,2.604c-2.812,0.393-5.444,0.27-7.891-0.377c-2.448-0.643-4.609-1.773-6.484-3.386
			s-3.335-3.617-4.375-6.026c-1.042-2.405-1.562-5.172-1.562-8.296v-65.315c0-3.126,0.521-6.036,1.562-8.738
			c1.04-2.697,2.5-5.09,4.375-7.177c1.875-2.085,4.036-3.823,6.484-5.207c2.447-1.385,5.079-2.278,7.891-2.673
			c2.814-0.396,5.47-0.246,7.97,0.444c2.499,0.689,4.661,1.818,6.485,3.384c1.821,1.568,3.255,3.555,4.297,5.958
			c1.04,2.409,1.562,5.171,1.562,8.298V274.7C208.672,277.824,208.15,280.737,207.11,283.435z M192.266,210.458
			c0-2.823-1.304-4.054-3.908-3.688c-2.605,0.366-3.906,1.963-3.906,4.785v67.782c0,2.824,1.301,4.056,3.906,3.689
			c2.604-0.365,3.908-1.962,3.908-4.786V210.458z"/>
		<path style="fill:#F1E6B2;" d="M255.474,276.874c-0.993,2.64-2.346,4.968-4.063,6.976c-1.721,2.017-3.779,3.71-6.172,5.088
			c-2.397,1.377-5.001,2.266-7.815,2.662c-2.812,0.393-5.443,0.242-7.891-0.454c-2.449-0.696-4.559-1.809-6.328-3.328
			c-1.773-1.523-3.179-3.459-4.219-5.814c-1.042-2.354-1.562-5.041-1.562-8.062v-85.163l16.094-2.263v85.937
			c0,1.354,0.363,2.347,1.093,2.974c0.729,0.632,1.666,0.866,2.812,0.704c1.146-0.161,2.112-0.661,2.894-1.504
			c0.781-0.839,1.17-1.939,1.17-3.294v-85.937l15.471-2.174v85.163C256.957,271.406,256.462,274.234,255.474,276.874z"/>
		<path style="fill:#F1E6B2;" d="M302.428,269.963c-1.148,3.078-2.657,5.66-4.531,7.746c-1.876,2.089-4.012,3.744-6.406,4.964
			c-2.397,1.22-4.845,2.009-7.346,2.358c-6.215,0.874-11.102-0.312-14.661-3.562c-3.56-3.252-5.341-8.366-5.341-15.346v-10.936
			l14.064-1.979v12.19c0,1.874,0.442,3.324,1.327,4.345c0.885,1.02,2.213,1.404,3.986,1.158c3.437-0.485,5.156-2.81,5.156-6.977
			c0-4.687-0.887-8.962-2.657-12.829c-1.771-3.866-4.169-8.189-7.188-12.976c-1.564-2.176-3.181-4.633-4.843-7.367
			c-1.67-2.734-3.205-5.566-4.609-8.493c-1.408-2.93-2.58-5.941-3.518-9.041c-0.938-3.094-1.408-6.154-1.408-9.176
			c0-3.229,0.416-6.333,1.239-9.315c0.825-2.981,2.088-5.63,3.79-7.956c1.701-2.322,3.845-4.29,6.421-5.902
			c2.579-1.612,5.639-2.668,9.179-3.166c5.52-0.775,9.947,0.505,13.283,3.838c3.332,3.335,4.998,8.438,4.998,15.313v11.407
			l-13.906,1.955V197.25c0-1.772-0.417-3.041-1.251-3.812c-0.835-0.765-1.873-1.063-3.124-0.888
			c-1.356,0.19-2.501,0.795-3.438,1.812c-0.937,1.018-1.406,2.412-1.406,4.184c0,3.022,0.208,5.594,0.625,7.724
			c0.414,2.131,1.068,4.123,1.953,5.976c0.885,1.857,1.955,3.764,3.203,5.722c1.249,1.962,2.707,4.283,4.375,6.962
			c3.438,5.457,6.588,11.005,9.455,16.645c2.862,5.639,4.296,11.531,4.296,17.676C304.146,263.313,303.572,266.885,302.428,269.963z
			"/>
		<path style="fill:#F1E6B2;" d="M335.71,187.937v88.287l-16.092,2.263v-88.288l-11.721,1.647v-15.782l39.533-5.557v15.782
			L335.71,187.937z"/>
		<path style="fill:#F1E6B2;" d="M391.186,257.565c-1.043,2.701-2.479,5.113-4.299,7.245c-1.823,2.132-3.986,3.871-6.483,5.21
			c-2.501,1.343-5.156,2.209-7.971,2.605c-2.812,0.396-5.443,0.27-7.891-0.373c-2.449-0.646-4.609-1.778-6.485-3.391
			s-3.334-3.617-4.375-6.025c-1.043-2.405-1.562-5.172-1.562-8.296v-65.316c0-3.126,0.52-6.035,1.562-8.737
			c1.041-2.697,2.499-5.09,4.375-7.178c1.876-2.085,4.036-3.823,6.485-5.207c2.447-1.384,5.078-2.278,7.891-2.673
			c2.814-0.396,5.47-0.245,7.971,0.444c2.497,0.689,4.66,1.819,6.483,3.384c1.82,1.568,3.256,3.555,4.299,5.958
			c1.039,2.41,1.562,5.172,1.562,8.298v65.316C392.747,251.955,392.225,254.867,391.186,257.565z M376.34,184.587
			c0-2.822-1.305-4.053-3.907-3.687c-2.605,0.366-3.907,1.963-3.907,4.786v67.781c0,2.824,1.302,4.056,3.907,3.69
			c2.603-0.365,3.907-1.963,3.907-4.787V184.587z"/>
		<path style="fill:#F1E6B2;" d="M430.717,262.871l-11.719-45.387l-3.594-13.716v61.254l-13.753,1.936V162.887l15.314-2.152
			l10.312,45.272l3.125,14.091v-61.252l13.44-1.888v104.07L430.717,262.871z"/>
		<path style="fill:#F1E6B2;" d="M9.955,489.467V362.193l19.684-2.767v108.927l20.448-2.874v18.347L9.955,489.467z"/>
		<path style="fill:#F1E6B2;" d="M57.729,482.752V355.479l19.684-2.767v127.273L57.729,482.752z"/>
		<path style="fill:#F1E6B2;" d="M134.646,460.473c-1.212,2.979-2.771,5.457-4.681,7.442c-1.913,1.989-4.047,3.505-6.403,4.532
			c-2.358,1.031-4.747,1.721-7.167,2.059l-27.136,3.813V351.046l27.136-3.813c2.419-0.338,4.808-0.322,7.167,0.043
			c2.356,0.373,4.491,1.281,6.403,2.731c1.91,1.451,3.469,3.494,4.681,6.126c1.21,2.636,1.815,6.053,1.815,10.255v25.034
			c0,3.44-0.734,6.6-2.197,9.481c-1.466,2.882-3.854,5.322-7.167,7.315c6.24,2.439,9.364,7.156,9.364,14.164v27.327
			C136.461,453.912,135.856,457.506,134.646,460.473z M117.543,370.386c0-3.567-1.213-5.183-3.631-4.841l-4.968,0.696v37.075
			l4.968-0.696c2.418-0.343,3.631-2.355,3.631-6.053V370.386z M117.543,423.895c0-3.693-1.213-5.371-3.631-5.033l-4.968,0.701
			v38.217l4.968-0.696c2.418-0.343,3.631-2.293,3.631-5.86V423.895z"/>
		<path style="fill:#F1E6B2;" d="M180.606,465.483c-0.765,0.107-1.433-0.47-2.007-1.725c-0.573-1.258-1.084-2.874-1.528-4.852
			c-0.448-1.975-0.764-4.095-0.956-6.361c-0.191-2.266-0.287-4.29-0.287-6.075v-27.709c0-1.531-0.352-2.816-1.05-3.867
			c-0.702-1.047-1.752-1.474-3.153-1.277l-4.777,0.673v53.125l-19.684,2.767V342.908l26.563-3.732
			c2.418-0.339,4.873-0.305,7.358,0.111c2.484,0.415,4.712,1.377,6.688,2.882c1.974,1.509,3.566,3.579,4.778,6.211
			c1.209,2.632,1.815,6.049,1.815,10.254v29.048c0,2.933-0.764,5.715-2.293,8.351c-1.528,2.632-3.568,5.021-6.115,7.161
			c2.547,1.428,4.682,3.197,6.403,5.313c1.719,2.116,2.579,4.768,2.579,7.95v25.8c0,4.079,0.254,7.734,0.764,10.975
			c0.508,3.243,1.082,6.349,1.721,9.315v0.573L180.606,465.483z M175.255,362.274c0-3.567-1.146-5.19-3.44-4.868l-4.968,0.697
			v39.367l4.968-0.696c1.148-0.161,2.008-0.665,2.581-1.508c0.572-0.847,0.859-2.286,0.859-4.325V362.274z"/>
		<path style="fill:#F1E6B2;" d="M232.967,458.126l-1.146-21.625l-11.657,1.639l-1.912,22.053l-17.772,2.497l15.096-129.394
			l22.359-3.144l15.1,125.153L232.967,458.126z M226.851,366.299l-4.777,53.413l8.218-1.154L226.851,366.299z"/>
		<path style="fill:#F1E6B2;" d="M293.733,449.583c-0.762,0.108-1.432-0.469-2.005-1.724c-0.573-1.258-1.085-2.874-1.529-4.848
			c-0.448-1.975-0.765-4.099-0.957-6.365c-0.19-2.267-0.284-4.29-0.284-6.075v-27.709c0-1.528-0.354-2.816-1.051-3.867
			c-0.704-1.047-1.755-1.474-3.155-1.273l-4.775,0.669v53.128l-19.686,2.767V327.012l26.562-3.736
			c2.42-0.338,4.875-0.304,7.358,0.116c2.484,0.411,4.712,1.377,6.689,2.878c1.975,1.508,3.563,3.578,4.775,6.211
			c1.212,2.632,1.816,6.053,1.816,10.254v29.048c0,2.933-0.764,5.715-2.293,8.351c-1.528,2.636-3.567,5.025-6.114,7.164
			c2.547,1.428,4.683,3.198,6.402,5.311c1.719,2.12,2.578,4.768,2.578,7.95v25.8c0,4.079,0.254,7.734,0.766,10.979
			c0.508,3.239,1.082,6.345,1.721,9.312v0.573L293.733,449.583z M288.385,346.379c0-3.567-1.146-5.195-3.44-4.872l-4.968,0.7v39.368
			l4.968-0.7c1.146-0.161,2.005-0.666,2.58-1.508c0.571-0.843,0.86-2.286,0.86-4.325V346.379z"/>
		<path style="fill:#F1E6B2;" d="M318.768,446.066V318.793l19.684-2.767V443.3L318.768,446.066z"/>
		<path style="fill:#F1E6B2;" d="M350.299,441.634V314.36l41.279-5.799v18.343l-21.595,3.036v34.781l14.333-2.017v17.393
			l-14.333,2.013v37.841l21.595-3.036v18.92L350.299,441.634z"/>
		<path style="fill:#F1E6B2;" d="M444.895,414.964c-1.4,3.763-3.25,6.922-5.543,9.474c-2.291,2.551-4.904,4.575-7.832,6.068
			c-2.933,1.492-5.926,2.458-8.983,2.886c-7.602,1.069-13.577-0.385-17.932-4.36c-4.354-3.971-6.531-10.228-6.531-18.762v-13.379
			l17.2-2.417v14.907c0,2.293,0.54,4.062,1.623,5.313c1.082,1.251,2.706,1.72,4.876,1.416c4.202-0.593,6.307-3.433,6.307-8.53
			c0-5.733-1.085-10.959-3.25-15.692c-2.168-4.725-5.097-10.016-8.79-15.868c-1.912-2.659-3.889-5.664-5.926-9.009
			c-2.039-3.344-3.917-6.807-5.638-10.389c-1.72-3.579-3.151-7.262-4.298-11.052c-1.146-3.786-1.72-7.526-1.72-11.224
			c0-3.948,0.504-7.746,1.512-11.391c1.011-3.647,2.556-6.888,4.635-9.731c2.08-2.839,4.7-5.244,7.853-7.218
			c3.154-1.971,6.895-3.264,11.226-3.871c6.751-0.951,12.165,0.615,16.244,4.694c4.077,4.078,6.114,10.316,6.114,18.728v13.948
			l-17.008,2.394v-15.86c0-2.167-0.512-3.722-1.527-4.66c-1.023-0.939-2.294-1.305-3.823-1.089
			c-1.656,0.234-3.057,0.974-4.204,2.216c-1.146,1.243-1.72,2.948-1.72,5.114c0,3.698,0.254,6.846,0.764,9.446
			c0.506,2.605,1.305,5.045,2.388,7.312c1.081,2.271,2.39,4.602,3.919,6.999c1.528,2.397,3.312,5.237,5.351,8.516
			c4.206,6.668,8.054,13.456,11.56,20.352c3.507,6.896,5.26,14.103,5.26,21.617C446.999,406.833,446.295,411.2,444.895,414.964z"/>
	</g>
</g>
</svg>
