<?xml version="1.0" encoding="iso-8859-1"?>
<!-- Generator: Adobe Illustrator 16.0.4, SVG Export Plug-In . SVG Version: 6.00 Build 0)  -->
<!DOCTYPE svg PUBLIC "-//W3C//DTD SVG 1.1//EN" "http://www.w3.org/Graphics/SVG/1.1/DTD/svg11.dtd">
<svg version="1.1" id="Layer_1" xmlns="http://www.w3.org/2000/svg" xmlns:xlink="http://www.w3.org/1999/xlink" x="0px" y="0px"
	 width="350px" height="139.333px" viewBox="0 5.167 350 139.333" style="enable-background:new 0 5.167 350 139.333;"
	 xml:space="preserve">
<g>
	<g>
		<path style="fill:#FFFFFF;" d="M8.599,7.189v13.668c0,1.361,0,2.544,0.798,3.816c0.651,1.035,1.864,1.746,3.372,1.746
			c1.509,0,2.722-0.681,3.313-1.686c0.829-1.242,0.829-2.455,0.829-3.876V7.189h3.461v13.668c0.029,2.899-0.444,5.119-2.367,6.716
			c-1.301,1.183-3.048,1.922-5.207,1.922c-1.568,0-3.817-0.444-5.295-1.894c-2.159-1.922-2.427-4.083-2.396-6.745V7.189H8.599z"/>
		<path style="fill:#FFFFFF;" d="M53.392,23.846l-0.06-16.657h3.372v21.893h-3.195L42.06,12.396l0.06,16.686h-3.372V7.189h3.284
			L53.392,23.846z"/>
		<path style="fill:#FFFFFF;" d="M75.138,7.189h3.491v21.893h-3.491V7.189z"/>
		<path style="fill:#FFFFFF;" d="M95.316,7.189h3.608l6.332,17.632l6.36-17.632h3.609l-8.254,21.892h-3.461L95.316,7.189z"/>
		<path style="fill:#FFFFFF;" d="M131.884,7.189h12.247v3.076h-8.756v6.213h8.638v3.047h-8.638v6.479h8.756v3.077h-12.247V7.189z"/>
		<path style="fill:#FFFFFF;" d="M161.855,7.189h6.183c3.432,0,5.207,0.473,6.362,1.272c1.805,1.183,2.899,3.461,2.899,5.917
			c0,1.539-0.444,3.018-1.244,4.172c-1.124,1.568-2.544,2.1-4.23,2.396l5.147,8.136h-3.698l-6.006-9.881h0.769
			c1.509,0,3.343-0.059,4.379-0.947c1.006-0.888,1.508-2.159,1.508-3.58c0-1.479-0.71-2.929-1.864-3.698
			c-0.947-0.592-2.159-0.71-3.729-0.71h-2.987v18.816h-3.491V7.189H161.855z"/>
		<path style="fill:#FFFFFF;" d="M196.561,22.603c0.235,3.284,2.544,3.934,3.697,3.934c1.952,0,3.639-1.538,3.639-3.491
			c0-2.426-2.07-2.988-4.882-4.024c-1.716-0.562-5.532-1.834-5.532-5.947c-0.028-4.082,3.462-6.302,6.894-6.302
			c2.809,0,6.332,1.539,6.596,6.036h-3.432c-0.235-1.184-0.769-3.076-3.283-3.076c-1.774,0-3.314,1.212-3.314,3.076
			c0,2.13,1.628,2.663,5.147,3.965c2.723,1.153,5.268,2.543,5.268,6.094s-2.397,6.627-7.07,6.627c-4.35,0-7.131-2.663-7.189-6.893
			H196.561z"/>
		<path style="fill:#FFFFFF;" d="M224.606,7.189h3.491v21.893h-3.491V7.189z"/>
		<path style="fill:#FFFFFF;" d="M249.695,10.266h-5.028V7.189h13.549v3.076h-5.029v18.816h-3.491V10.266L249.695,10.266z"/>
		<path style="fill:#FFFFFF;" d="M279.873,21.302L273.011,7.19h3.785l4.822,10.828L286.44,7.19h3.787l-6.864,14.112v7.78h-3.49
			V21.302z"/>
	</g>
	<g>
		<path style="fill:#FFFFFF;" d="M326.513,11.462c-4.166,0-6.603,3.233-6.603,6.535v0.022c0,3.325,2.437,6.535,6.603,6.535
			c4.168,0,6.604-3.21,6.604-6.535C333.117,14.695,330.681,11.462,326.513,11.462z M326.513,22.347
			c-2.367,0-4.234-1.844-4.234-4.304v-0.022c0-2.482,1.865-4.328,4.234-4.328c2.37,0,4.237,1.845,4.237,4.328
			C330.75,20.503,328.881,22.347,326.513,22.347z"/>
		<path style="fill:#FFFFFF;" d="M345.894,8.912V7.044c-1.754,0.022-4.646,0.205-4.646,3.939v0.843h-1.685v1.844h1.685v10.543h2.368
			V13.671h2.278v-1.844h-2.278v-0.728C343.615,8.935,345.096,8.935,345.894,8.912z"/>
	</g>
	<rect x="2.114" y="108.321" style="fill:#FFFFFF;" width="344.555" height="1.841"/>
	<g>
		<path style="fill:#FFFFFF;" d="M121.768,123.537h3.012v16.231h6.661v2.655h-9.673V123.537z"/>
		<path style="fill:#FFFFFF;" d="M132.359,123.537h3.011v18.887h-3.011V123.537z"/>
		<path style="fill:#FFFFFF;" d="M138,123.537h5.639c1.787,0,3.089,0.358,4.007,1.021c1.378,0.842,1.915,2.322,1.915,3.827
			c0,1.99-1.046,3.241-2.398,3.956c3.267,1.045,3.446,3.828,3.446,4.67c-0.026,1.863-0.842,3.444-2.297,4.313
			c-1.328,0.919-2.451,1.097-4.772,1.097H138V123.537L138,123.537z M141.011,131.373h2.476c0.689,0,1.378-0.052,1.915-0.308
			c0.943-0.511,1.276-1.327,1.276-2.322c0-1.148-0.612-1.915-1.276-2.221c-0.46-0.23-1.046-0.332-1.99-0.332h-2.4V131.373z
			 M141.011,139.771h3.038c0.612,0,1.378-0.052,2.017-0.308c0.918-0.408,1.633-1.199,1.659-2.628c0-1.301-0.689-2.196-1.659-2.603
			c-0.74-0.307-1.352-0.332-2.271-0.332h-2.783V139.771z"/>
		<path style="fill:#FFFFFF;" d="M152.164,123.537h5.333c2.961,0,4.492,0.408,5.487,1.098c1.558,1.02,2.501,2.985,2.501,5.104
			c0,1.327-0.383,2.604-1.072,3.598c-0.97,1.354-2.195,1.813-3.65,2.068l4.441,7.02h-3.19l-5.181-8.525h0.663
			c1.301,0,2.884-0.05,3.776-0.816c0.868-0.766,1.301-1.862,1.301-3.089c0-1.275-0.612-2.526-1.607-3.188
			c-0.817-0.511-1.864-0.614-3.217-0.614h-2.578v16.231h-3.011L152.164,123.537L152.164,123.537z"/>
		<path style="fill:#FFFFFF;" d="M168.448,142.424h-3.266l7.758-18.887h2.731l7.63,18.887h-3.266l-1.786-4.467h-8.064
			L168.448,142.424z M174.189,127.034l-3.19,8.499h6.433L174.189,127.034z"/>
		<path style="fill:#FFFFFF;" d="M184.194,123.537h5.335c2.961,0,4.491,0.408,5.486,1.098c1.558,1.02,2.501,2.985,2.501,5.104
			c0,1.327-0.383,2.604-1.071,3.598c-0.971,1.354-2.197,1.813-3.65,2.068l4.44,7.02h-3.189l-5.181-8.525h0.662
			c1.301,0,2.884-0.05,3.776-0.816c0.868-0.766,1.302-1.862,1.302-3.089c0-1.275-0.613-2.526-1.607-3.188
			c-0.818-0.511-1.863-0.614-3.215-0.614h-2.58v16.231h-3.011v-18.885H184.194z"/>
		<path style="fill:#FFFFFF;" d="M198.82,123.537h3.011v18.887h-3.011V123.537z"/>
		<path style="fill:#FFFFFF;" d="M204.459,123.537h10.566v2.654h-7.555v5.359h7.452v2.629h-7.452v5.589h7.555v2.655h-10.566V123.537
			z"/>
		<path style="fill:#FFFFFF;" d="M219.187,136.833c0.204,2.834,2.195,3.395,3.188,3.395c1.685,0,3.14-1.327,3.14-3.011
			c0-2.093-1.786-2.579-4.211-3.472c-1.479-0.484-4.772-1.582-4.772-5.129c-0.025-3.521,2.985-5.437,5.947-5.437
			c2.424,0,5.461,1.325,5.691,5.206h-2.961c-0.204-1.021-0.662-2.655-2.834-2.655c-1.531,0-2.858,1.047-2.858,2.655
			c0,1.838,1.403,2.295,4.44,3.419c2.35,0.996,4.544,2.195,4.544,5.258c0,3.062-2.069,5.717-6.101,5.717
			c-3.752,0-6.15-2.297-6.201-5.946H219.187L219.187,136.833z"/>
	</g>
	<g>
		<polygon style="fill:#FFFFFF;" points="31.677,42.359 31.677,63.407 12.089,63.407 12.089,42.359 2.197,42.359 2.197,94.211 
			12.089,94.211 12.089,72.354 31.677,72.354 31.677,94.211 41.568,94.211 41.568,42.359 		"/>
		<path style="fill:#FFFFFF;" d="M79.188,41.416c-7.226,0-13.969,2.649-18.983,7.462c-5.216,5.005-8.088,11.993-8.088,19.679v0.066
			c0,7.027,2.72,13.641,7.658,18.625c5.054,5.1,11.924,7.91,19.347,7.91c15.256,0,27.208-11.805,27.208-26.872
			C106.329,53.218,94.408,41.416,79.188,41.416z M79.324,86.208c-4.825,0-9.254-1.863-12.472-5.248
			c-3.167-3.331-4.912-7.833-4.912-12.674v-0.067c0-4.746,1.708-9.193,4.809-12.522c3.204-3.44,7.646-5.333,12.507-5.333
			c10.754,0,17.181,9.148,17.181,17.99C96.437,79.53,87.735,86.208,79.324,86.208z"/>
		<path style="fill:#FFFFFF;" d="M153.483,74.493V42.359h-9.825v32.133c0,3.191,0,5.711-1.727,8.3l-0.028,0.046
			c-1.241,2.111-3.754,3.369-6.723,3.369c-2.915,0-5.484-1.317-6.872-3.527c-1.674-2.665-1.674-5.103-1.674-8.188V42.359h-9.892
			v32.122c-0.063,5.712,0.331,11.244,5.771,16.098c4.35,4.246,10.845,4.578,12.734,4.578c4.848,0,9.172-1.6,12.506-4.622
			C152.887,86.257,153.542,80.292,153.483,74.493z"/>
		<path style="fill:#FFFFFF;" d="M185.474,64.293l-0.775-0.288c-7.88-2.908-10.374-4.012-10.374-7.863
			c0-3.929,3.396-6.05,6.591-6.05c2.617,0,5.44,0.741,6.541,6.239l0.155,0.777h9.642l-0.062-1.023
			c-0.289-4.896-2.271-8.852-5.731-11.442c-2.781-2.081-6.43-3.228-10.275-3.228c-4.867,0-9.447,1.802-12.564,4.942
			c-2.725,2.745-4.149,6.341-4.12,10.393c0,10.11,9.28,13.166,13.264,14.471c0.46,0.17,0.912,0.333,1.355,0.495
			c5.691,2.067,9.127,3.313,9.127,7.768c0,3.856-3.289,6.993-7.332,6.993c-1.149,0-6.915-0.389-7.469-8.075l-0.064-0.897h-9.77
			l0.013,0.979c0.142,10.128,6.956,16.671,17.359,16.671c11.805,0,17.088-8.074,17.088-16.077
			C198.071,70.363,191.85,66.995,185.474,64.293z"/>
		<polygon style="fill:#FFFFFF;" points="203.896,42.359 203.896,51.307 215.364,51.307 215.364,94.211 225.257,94.211 
			225.257,51.307 236.726,51.307 236.726,42.359 		"/>
		<path style="fill:#FFFFFF;" d="M267.126,41.416c-7.226,0-13.968,2.649-18.984,7.462c-5.214,5.005-8.088,11.993-8.088,19.679v0.066
			c0,7.027,2.72,13.641,7.658,18.625c5.055,5.1,11.925,7.91,19.347,7.91c15.256,0,27.208-11.805,27.208-26.872
			C294.268,53.218,282.346,41.416,267.126,41.416z M267.263,86.208c-4.826,0-9.255-1.863-12.473-5.248
			c-3.167-3.331-4.913-7.833-4.913-12.674v-0.067c0-4.746,1.708-9.193,4.809-12.522c3.204-3.44,7.648-5.333,12.509-5.333
			c10.755,0,17.18,9.148,17.18,17.99C284.375,79.53,275.674,86.208,267.263,86.208z"/>
		<polygon style="fill:#FFFFFF;" points="338.002,42.359 338.13,78.158 313.711,42.359 304.747,42.359 304.747,94.211 
			314.373,94.211 314.244,58.329 338.865,94.211 347.627,94.211 347.627,42.359 		"/>
	</g>
</g>
</svg>
