<?xml version="1.0" encoding="iso-8859-1"?>
<!-- Generator: Adobe Illustrator 16.0.4, SVG Export Plug-In . SVG Version: 6.00 Build 0)  -->
<!DOCTYPE svg PUBLIC "-//W3C//DTD SVG 1.1//EN" "http://www.w3.org/Graphics/SVG/1.1/DTD/svg11.dtd">
<svg version="1.1" id="Layer_1" xmlns="http://www.w3.org/2000/svg" xmlns:xlink="http://www.w3.org/1999/xlink" x="0px" y="0px"
	 width="625.658px" height="53.32px" viewBox="0 0 625.658 53.32" style="enable-background:new 0 0 625.658 53.32;"
	 xml:space="preserve">
<g style="enable-background:new    ;">
	<path style="fill:#FFFFFF;" d="M5.876,13.207v17.024c0,2.033,0,3.594,1.271,5.409c0.944,1.343,2.723,2.251,4.683,2.251
		c1.924,0,3.703-0.871,4.61-2.215c1.271-1.778,1.271-3.34,1.271-5.445V13.207h2.977v17.024c0.036,3.122-0.363,6.208-3.049,8.277
		c-1.488,1.271-3.485,2.032-5.808,2.032c-1.888,0-4.248-0.544-5.917-2.032c-2.832-2.287-3.049-5.337-3.049-8.277V13.207H5.876z"/>
	<path style="fill:#FFFFFF;" d="M46.822,35.64l-0.036-22.434h2.904v26.862h-2.904L30.85,17.454l0.073,22.615h-2.904V13.207h3.049
		L46.822,35.64z"/>
	<path style="fill:#FFFFFF;" d="M57.058,13.207h2.977v26.862h-2.977V13.207z"/>
	<path style="fill:#FFFFFF;" d="M65.116,13.207h3.158l8.894,22.979l8.93-22.979h3.158L78.584,40.069h-2.868L65.116,13.207z"/>
	<path style="fill:#FFFFFF;" d="M94.301,13.207h14.883v2.649H97.278v9.33h11.834v2.649H97.278v9.583h11.906v2.65H94.301V13.207z"/>
	<path style="fill:#FFFFFF;" d="M115.682,13.207h7.006c4.211,0,6.171,0.508,7.551,1.379c2.178,1.308,3.667,4.175,3.667,7.225
		c0.036,1.814-0.472,3.738-1.598,5.263c-1.597,2.179-3.521,2.687-5.989,2.94l6.679,10.056h-3.267l-7.587-11.726h0.871
		c1.888,0,4.501-0.036,5.954-1.379c1.416-1.38,2.033-3.013,2.033-4.937c0-1.997-0.98-4.103-2.65-5.191
		c-1.343-0.871-3.013-0.98-5.445-0.98h-4.21v24.213h-3.013V13.207z"/>
	<path style="fill:#FFFFFF;" d="M140.946,32.592c0.436,4.465,3.703,5.408,5.372,5.408c2.795,0,5.373-2.142,5.373-5.118
		c0-3.775-3.23-4.61-6.353-5.627c-2.178-0.653-6.861-2.032-6.861-7.114c-0.072-4.756,3.884-7.405,7.986-7.405
		c3.339,0,7.188,1.851,7.623,6.933h-2.977c-0.327-1.742-1.198-4.392-4.755-4.392c-2.687,0-4.901,1.814-4.901,4.609
		c-0.036,3.268,2.614,4.066,6.68,5.445c2.541,0.98,6.534,2.396,6.534,7.333c0,4.393-3.304,7.877-8.313,7.877
		c-4.501,0-8.24-2.831-8.422-7.949H140.946z"/>
	<path style="fill:#FFFFFF;" d="M160.693,13.207h2.977v26.862h-2.977V13.207z"/>
	<path style="fill:#FFFFFF;" d="M175.249,15.856h-6.607v-2.649h16.263v2.649h-6.643v24.213h-3.013V15.856z"/>
	<path style="fill:#FFFFFF;" d="M196.266,30.631l-8.64-17.424h3.267l6.897,14.521l6.861-14.521h3.267l-8.64,17.424v9.438h-3.013
		V30.631z"/>
</g>
<g style="enable-background:new    ;">
	<path style="fill:none;stroke:#FFFFFF;stroke-width:0.5;stroke-miterlimit:10;" d="M5.876,13.207v17.024
		c0,2.033,0,3.594,1.271,5.409c0.944,1.343,2.723,2.251,4.683,2.251c1.924,0,3.703-0.871,4.61-2.215
		c1.271-1.778,1.271-3.34,1.271-5.445V13.207h2.977v17.024c0.036,3.122-0.363,6.208-3.049,8.277
		c-1.488,1.271-3.485,2.032-5.808,2.032c-1.888,0-4.248-0.544-5.917-2.032c-2.832-2.287-3.049-5.337-3.049-8.277V13.207H5.876z"/>
	<path style="fill:none;stroke:#FFFFFF;stroke-width:0.5;stroke-miterlimit:10;" d="M46.822,35.64l-0.036-22.434h2.904v26.862
		h-2.904L30.85,17.454l0.073,22.615h-2.904V13.207h3.049L46.822,35.64z"/>
	<path style="fill:none;stroke:#FFFFFF;stroke-width:0.5;stroke-miterlimit:10;" d="M57.058,13.207h2.977v26.862h-2.977V13.207z"/>
	<path style="fill:none;stroke:#FFFFFF;stroke-width:0.5;stroke-miterlimit:10;" d="M65.116,13.207h3.158l8.894,22.979l8.93-22.979
		h3.158L78.584,40.069h-2.868L65.116,13.207z"/>
	<path style="fill:none;stroke:#FFFFFF;stroke-width:0.5;stroke-miterlimit:10;" d="M94.301,13.207h14.883v2.649H97.278v9.33h11.834
		v2.649H97.278v9.583h11.906v2.65H94.301V13.207z"/>
	<path style="fill:none;stroke:#FFFFFF;stroke-width:0.5;stroke-miterlimit:10;" d="M115.682,13.207h7.006
		c4.211,0,6.171,0.508,7.551,1.379c2.178,1.308,3.667,4.175,3.667,7.225c0.036,1.814-0.472,3.738-1.598,5.263
		c-1.597,2.179-3.521,2.687-5.989,2.94l6.679,10.056h-3.267l-7.587-11.726h0.871c1.888,0,4.501-0.036,5.954-1.379
		c1.416-1.38,2.033-3.013,2.033-4.937c0-1.997-0.98-4.103-2.65-5.191c-1.343-0.871-3.013-0.98-5.445-0.98h-4.21v24.213h-3.013
		V13.207z"/>
	<path style="fill:none;stroke:#FFFFFF;stroke-width:0.5;stroke-miterlimit:10;" d="M140.946,32.592
		c0.436,4.465,3.703,5.408,5.372,5.408c2.795,0,5.373-2.142,5.373-5.118c0-3.775-3.23-4.61-6.353-5.627
		c-2.178-0.653-6.861-2.032-6.861-7.114c-0.072-4.756,3.884-7.405,7.986-7.405c3.339,0,7.188,1.851,7.623,6.933h-2.977
		c-0.327-1.742-1.198-4.392-4.755-4.392c-2.687,0-4.901,1.814-4.901,4.609c-0.036,3.268,2.614,4.066,6.68,5.445
		c2.541,0.98,6.534,2.396,6.534,7.333c0,4.393-3.304,7.877-8.313,7.877c-4.501,0-8.24-2.831-8.422-7.949H140.946z"/>
	<path style="fill:none;stroke:#FFFFFF;stroke-width:0.5;stroke-miterlimit:10;" d="M160.693,13.207h2.977v26.862h-2.977V13.207z"/>
	<path style="fill:none;stroke:#FFFFFF;stroke-width:0.5;stroke-miterlimit:10;" d="M175.249,15.856h-6.607v-2.649h16.263v2.649
		h-6.643v24.213h-3.013V15.856z"/>
	<path style="fill:none;stroke:#FFFFFF;stroke-width:0.5;stroke-miterlimit:10;" d="M196.266,30.631l-8.64-17.424h3.267
		l6.897,14.521l6.861-14.521h3.267l-8.64,17.424v9.438h-3.013V30.631z"/>
</g>
<g style="enable-background:new    ;">
	<path style="fill:#FFFFFF;" d="M218.696,32.299c0-4.316,3.223-8.144,8.202-8.144c5.007,0,8.23,3.827,8.23,8.173
		s-3.223,8.145-8.23,8.145c-4.979,0-8.202-3.799-8.202-8.145V32.299z M220.796,32.356c0,3.512,2.676,6.159,6.101,6.159
		c3.453,0,6.101-2.647,6.101-6.188s-2.647-6.188-6.101-6.188c-3.425,0-6.101,2.647-6.101,6.188V32.356z"/>
	<path style="fill:#FFFFFF;" d="M238.701,26.284h-2.273v-1.697h2.273V23.32c0-4.777,3.77-4.921,5.439-4.921v1.698
		c-1.065,0.058-3.338,0.058-3.338,3.424v1.065h3.338v1.697h-3.338v13.785h-2.101V26.284z"/>
</g>
<g style="enable-background:new    ;">
	<path style="fill:none;stroke:#FFFFFF;stroke-width:0.5;stroke-miterlimit:10;" d="M218.696,32.299
		c0-4.316,3.223-8.144,8.202-8.144c5.007,0,8.23,3.827,8.23,8.173s-3.223,8.145-8.23,8.145c-4.979,0-8.202-3.799-8.202-8.145V32.299
		z M220.796,32.356c0,3.512,2.676,6.159,6.101,6.159c3.453,0,6.101-2.647,6.101-6.188s-2.647-6.188-6.101-6.188
		c-3.425,0-6.101,2.647-6.101,6.188V32.356z"/>
	<path style="fill:none;stroke:#FFFFFF;stroke-width:0.5;stroke-miterlimit:10;" d="M238.701,26.284h-2.273v-1.697h2.273V23.32
		c0-4.777,3.77-4.921,5.439-4.921v1.698c-1.065,0.058-3.338,0.058-3.338,3.424v1.065h3.338v1.697h-3.338v13.785h-2.101V26.284z"/>
</g>
<g style="enable-background:new    ;">
	<path style="fill:#FFFFFF;" d="M257.2,40.069V13.207h6.861v10.092h8.785V13.207h6.861v26.862h-6.861V29.324h-8.785v10.745H257.2z"
		/>
	<path style="fill:#FFFFFF;" d="M284.389,26.928c0-8.785,6.752-14.23,14.157-14.23c8.276,0,14.194,6.462,14.194,13.939
		c0,7.479-5.881,13.939-14.23,13.939c-8.458,0-14.121-6.715-14.121-13.612V26.928z M291.25,26.601c0,4.103,2.795,7.95,7.405,7.95
		c4.864,0,7.224-4.429,7.224-7.877c0-3.485-2.36-7.95-7.297-7.95c-4.755,0-7.333,4.065-7.333,7.841V26.601z"/>
	<path style="fill:#FFFFFF;" d="M324.21,13.207v16.227c0,0.907,0.036,2.178,0.472,3.23c0.472,1.053,1.343,1.888,3.013,1.888
		c1.706,0,2.578-0.763,2.977-1.742c0.436-1.017,0.436-2.323,0.436-3.376V13.207h6.861v16.227c0,4.501-0.98,6.497-2.687,8.24
		c-1.742,1.778-4.175,2.903-7.515,2.903c-1.96,0-5.518-0.472-7.731-2.867c-2.214-2.433-2.687-4.32-2.687-8.276V13.207H324.21z"/>
	<path style="fill:#FFFFFF;" d="M349.038,31.176c0,3.122,1.924,3.666,2.796,3.666c1.634,0,2.613-1.343,2.613-2.577
		c0-1.416-1.125-1.852-5.263-3.594c-1.889-0.763-6.571-2.65-6.571-7.695c0-5.409,4.901-8.277,9.401-8.277
		c3.703,0,8.931,1.888,9.039,8.35h-6.787c-0.146-0.907-0.363-2.613-2.469-2.613c-1.198,0-2.359,0.835-2.359,2.105
		c0,1.233,0.726,1.561,5.554,3.738c5.009,2.251,6.28,4.574,6.28,7.696c0,4.283-2.251,8.603-9.366,8.603
		c-7.042,0-9.874-4.138-9.692-9.401H349.038z"/>
	<path style="fill:#FFFFFF;" d="M368.749,19.232h-5.3v-6.025h17.425v6.025h-5.264v20.837h-6.861V19.232z"/>
	<path style="fill:#FFFFFF;" d="M382.361,26.928c0-8.785,6.752-14.23,14.157-14.23c8.276,0,14.193,6.462,14.193,13.939
		c0,7.479-5.881,13.939-14.229,13.939c-8.458,0-14.121-6.715-14.121-13.612V26.928z M389.222,26.601c0,4.103,2.795,7.95,7.406,7.95
		c4.863,0,7.224-4.429,7.224-7.877c0-3.485-2.36-7.95-7.297-7.95c-4.755,0-7.333,4.065-7.333,7.841V26.601z"/>
	<path style="fill:#FFFFFF;" d="M431.62,29.578l-0.145-16.371h6.57v26.862h-5.953l-10.273-16.19l0.145,16.19h-6.57V13.207h5.918
		L431.62,29.578z"/>
</g>
<g style="enable-background:new    ;">
	<path style="fill:#FFFFFF;" d="M463.683,4.089v47.974h-3.887V4.089H463.683z"/>
</g>
<g style="enable-background:new    ;">
	<path style="fill:#FFFFFF;" d="M477.593,13.207h4.429v22.761h7.659v4.102h-12.088V13.207z"/>
	<path style="fill:#FFFFFF;" d="M492.874,13.207h4.43v26.862h-4.43V13.207z"/>
	<path style="fill:#FFFFFF;" d="M502.022,13.207h7.115c2.576,0,4.246,0.617,5.408,1.706c1.416,1.198,1.996,3.122,1.996,5.046
		c0,3.376-1.778,5.082-4.174,5.554c3.412,0.835,5.3,3.122,5.3,6.861c0,2.432-0.835,4.429-2.36,5.771
		c-1.197,1.161-3.012,1.924-5.299,1.924h-7.986V13.207z M506.45,24.096h1.925c1.089,0,1.924-0.218,2.505-0.689
		c0.799-0.689,1.089-1.634,1.089-2.867c0-1.308-0.437-2.215-1.089-2.723c-0.545-0.436-1.307-0.69-2.723-0.69h-1.707V24.096z
		 M506.45,36.148h2.541c1.308,0,2.215-0.29,2.832-0.835c0.871-0.616,1.307-1.633,1.307-3.121c0.037-1.452-0.472-2.614-1.307-3.268
		c-0.617-0.581-1.561-0.907-2.94-0.907h-2.433V36.148z"/>
	<path style="fill:#FFFFFF;" d="M521.406,13.207h6.243c3.885,0,5.99,0.871,7.115,2.069c1.525,1.561,2.396,3.63,2.396,6.316
		c0,1.524-0.254,3.085-0.943,4.355c-0.908,1.742-2.179,2.832-3.74,3.376l5.191,10.745h-4.973l-5.918-13.214
		c0.509,0,0.799,0,1.199-0.036c1.307-0.036,2.468-0.362,3.303-1.161c0.98-0.98,1.344-2.323,1.344-3.667
		c0-1.451-0.328-2.903-1.562-3.884c-0.835-0.653-2.069-0.799-3.558-0.799h-1.67v22.761h-4.429V13.207z"/>
	<path style="fill:#FFFFFF;" d="M543.005,40.069h-4.502l7.441-26.862h4.175l7.659,26.862h-4.501l-1.706-6.207h-6.896L543.005,40.069
		z M548.087,19.414l-2.324,10.382h4.646L548.087,19.414z"/>
	<path style="fill:#FFFFFF;" d="M560.173,13.207h6.244c3.885,0,5.99,0.871,7.115,2.069c1.524,1.561,2.396,3.63,2.396,6.316
		c0,1.524-0.255,3.085-0.944,4.355c-0.907,1.742-2.179,2.832-3.739,3.376l5.191,10.745h-4.974l-5.917-13.214
		c0.508,0,0.799,0,1.198-0.036c1.307-0.036,2.468-0.362,3.304-1.161c0.979-0.98,1.343-2.323,1.343-3.667
		c0-1.451-0.327-2.903-1.562-3.884c-0.834-0.653-2.068-0.799-3.557-0.799h-1.67v22.761h-4.43V13.207z"/>
	<path style="fill:#FFFFFF;" d="M579.593,13.207h4.43v26.862h-4.43V13.207z"/>
	<path style="fill:#FFFFFF;" d="M588.923,13.207h12.887v4.102h-8.458v6.788h8.458v4.066h-8.458v7.805h8.458v4.102h-12.887V13.207z"
		/>
	<path style="fill:#FFFFFF;" d="M609.831,32.01c0.182,3.34,1.706,4.646,3.957,4.646c2.359,0,3.884-1.524,3.884-3.993
		c0-3.013-3.085-3.703-5.881-4.719c-2.649-1.053-5.917-2.578-5.917-7.225c-0.036-4.937,3.014-8.059,7.769-8.059
		c4.61,0,7.296,2.287,8.022,7.369h-4.283c-0.146-1.96-1.198-3.666-3.559-3.666c-2.104,0-3.412,1.561-3.412,3.666
		c0,2.904,2.832,3.521,5.918,4.646c2.577,1.017,5.881,2.687,5.881,7.877c0,4.938-3.631,8.022-8.459,8.022
		c-5.372,0-8.276-3.013-8.312-8.566H609.831z"/>
</g>
</svg>
